<?xml version="1.0" encoding="utf-8"?>
<!-- Generator: Adobe Illustrator 21.0.0, SVG Export Plug-In . SVG Version: 6.00 Build 0)  -->
<svg version="1.1" id="Capa_2" xmlns="http://www.w3.org/2000/svg" xmlns:xlink="http://www.w3.org/1999/xlink" x="0px" y="0px"
	 viewBox="0 0 80 80" style="enable-background:new 0 0 80 80;" xml:space="preserve">
<style type="text/css">
	.st0{fill:#FFFFFF;}
</style>
<path d="M72,0H8C3.6,0,0,3.6,0,8v64c0,4.4,3.6,8,8,8h37.7c-1.3,0-2.3-1-2.3-2.3c0-0.9,0-1.8,0-2.7V51v-3.3h-0.5h-5.3v0v-5.1V39
	c0-1.3,1-2.3,2.3-2.3c0,0,0,0,0,0c0.4,0,0.7,0,1.1,0c1.3,0,2.1,0,2.3,0V33v-2.2v-0.2v-0.1h0c0-1.9,0-3.1,0.2-4.2
	c0.2-1,0.7-4,2.6-6.5c3.3-4.2,8.9-4.4,10.1-4.4c1.5,0,3,0,4.5,0c1.8,0,3.6,0,5.4,0c1.3,0,2.3,1,2.3,2.3v6.2c0,1.3-1,2.3-2.3,2.3
	h-5.7c-2.3,0.1-2.7,3-2.7,3c0,0.5-0.1,1-0.1,1.5v6h6.6c0.2,0,0.9,0,0.9,0c1.4,0,2.5,1.2,2.3,2.6l-0.7,6.4c-0.1,1-0.8,1.8-1.8,2v0
	h-7.3v0.8v13.2v3v13c0,1.3-1,2.3-2.3,2.3H72c4.4,0,8-3.6,8-8V8C80,3.6,76.4,0,72,0z"/>
</svg>
