<?xml version="1.0" encoding="utf-8"?>
<!-- Generator: Adobe Illustrator 21.0.0, SVG Export Plug-In . SVG Version: 6.00 Build 0)  -->
<svg version="1.1" id="rectangiñp" xmlns="http://www.w3.org/2000/svg" xmlns:xlink="http://www.w3.org/1999/xlink" x="0px"
	 y="0px" viewBox="0 0 80 80" style="enable-background:new 0 0 80 80;" xml:space="preserve">
<style type="text/css">
	.st0{fill:#FFFFFF;}
</style>
<g>
	<g>
		<path class="st0" d="M63.6,10.4H16.4c-3.3,0-6,2.7-6,6v47.3c0,3.3,2.7,6,6,6h47.3c3.3,0,6-2.7,6-6V16.4
			C69.6,13.1,66.9,10.4,63.6,10.4z M40,57.3c-9.5,0-17.3-7.7-17.3-17.3S30.5,22.8,40,22.8S57.3,30.5,57.3,40S49.5,57.3,40,57.3z
			 M59.8,24.8c-2.2,0-3.9-1.8-3.9-3.9s1.8-3.9,3.9-3.9s3.9,1.8,3.9,3.9S62,24.8,59.8,24.8z"/>
		<path class="st0" d="M40,26.8c-7.3,0-13.3,5.9-13.3,13.3c0,7.3,5.9,13.3,13.3,13.3c7.3,0,13.3-5.9,13.3-13.3
			C53.3,32.7,47.3,26.8,40,26.8z"/>
	</g>
	<path class="st0" d="M72,0H8C3.6,0,0,3.6,0,8v64c0,4.4,3.6,8,8,8h64c4.4,0,8-3.6,8-8V8C80,3.6,76.4,0,72,0z M73.6,63.6
		c0,5.5-4.5,10-10,10H16.4c-5.5,0-10-4.5-10-10V16.4c0-5.5,4.5-10,10-10h47.3c5.5,0,10,4.5,10,10V63.6z"/>
</g>
<g id="circulo_gradne">
</g>
<g>
</g>
<g>
</g>
<g>
</g>
<g>
</g>
<g>
</g>
<g>
</g>
</svg>
