<?xml version="1.0" encoding="utf-8"?>
<!-- Generator: Adobe Illustrator 21.0.0, SVG Export Plug-In . SVG Version: 6.00 Build 0)  -->
<svg version="1.1" id="White" xmlns="http://www.w3.org/2000/svg" xmlns:xlink="http://www.w3.org/1999/xlink" x="0px" y="0px"
	 viewBox="0 0 80 80" style="enable-background:new 0 0 80 80;" xml:space="preserve">
<path d="M72,80H8c-4.4,0-8-3.6-8-8V8c0-4.4,3.6-8,8-8h64c4.4,0,8,3.6,8,8v64C80,76.4,76.4,80,72,80z M30.7,60.3
	c18.9,0,29.2-15.6,29.2-29.2c0-0.4,0-0.9,0-1.3c2-1.4,3.7-3.3,5.1-5.3c-1.8,0.8-3.8,1.4-5.9,1.6c2.1-1.3,3.7-3.3,4.5-5.7
	c-2,1.2-4.2,2-6.5,2.5c-2.3-2.4-5.7-3.8-9.5-3.1c-4.5,0.8-8,4.8-8.3,9.4c-0.1,1,0,2,0.2,3c-8.5-0.4-16.1-4.5-21.1-10.7
	c-0.9,1.5-1.4,3.3-1.4,5.2c0,3.6,1.8,6.7,4.6,8.5C20,35.2,18.4,34.7,17,34c0,0,0,0,0,0c-0.1,5,3.5,9.2,8.2,10.2
	c-0.9,0.2-1.8,0.4-2.7,0.4c-0.7,0-1.3-0.1-1.9-0.2c1.3,4.1,5.1,7,9.6,7.1c-3.5,2.8-7.9,4.4-12.7,4.4c-0.8,0-1.6,0-2.4-0.1
	C19.5,58.6,24.9,60.3,30.7,60.3"/>
<g>
</g>
<g>
</g>
<g>
</g>
<g>
</g>
<g>
</g>
<g>
</g>
</svg>
